<?xml version="1.0" encoding="UTF-8"?>
<svg width="512px" height="512px" viewBox="0 0 512 512" version="1.1" xmlns="http://www.w3.org/2000/svg" xmlns:xlink="http://www.w3.org/1999/xlink">
    <title>logo512</title>
    <g id="logo512" stroke="none" stroke-width="1" fill="none" fill-rule="evenodd">
        <path d="M146.141456,0 L365.858544,0 C416.675112,0 435.102427,5.29105984 453.680205,15.2265641 C472.257983,25.1620684 486.837932,39.7420171 496.773436,58.3197949 C506.70894,76.8975727 512,95.3248882 512,146.141456 L512,365.858544 C512,416.675112 506.70894,435.102427 496.773436,453.680205 C486.837932,472.257983 472.257983,486.837932 453.680205,496.773436 C435.102427,506.70894 416.675112,512 365.858544,512 L146.141456,512 C95.3248882,512 76.8975727,506.70894 58.3197949,496.773436 C39.7420171,486.837932 25.1620684,472.257983 15.2265641,453.680205 C5.29105984,435.102427 0,416.675112 0,365.858544 L0,146.141456 C0,95.3248882 5.29105984,76.8975727 15.2265641,58.3197949 C25.1620684,39.7420171 39.7420171,25.1620684 58.3197949,15.2265641 C76.8975727,5.29105984 95.3248882,0 146.141456,0 Z" id="background" fill-opacity="0.01" fill="#FFFFFF" fill-rule="nonzero"></path>
        <g id="casino" transform="translate(88.000000, 89.000000)" fill="#000000" fill-rule="nonzero">
            <path d="M295.111111,0 L36.8888889,0 C16.6,0 0,16.6 0,36.8888889 L0,295.111111 C0,315.4 16.6,332 36.8888889,332 L295.111111,332 C315.4,332 332,315.4 332,295.111111 L332,36.8888889 C332,16.6 315.4,0 295.111111,0 Z M83,276.666667 C67.6911111,276.666667 55.3333333,264.308889 55.3333333,249 C55.3333333,233.691111 67.6911111,221.333333 83,221.333333 C98.3088889,221.333333 110.666667,233.691111 110.666667,249 C110.666667,264.308889 98.3088889,276.666667 83,276.666667 Z M83,110.666667 C67.6911111,110.666667 55.3333333,98.3088889 55.3333333,83 C55.3333333,67.6911111 67.6911111,55.3333333 83,55.3333333 C98.3088889,55.3333333 110.666667,67.6911111 110.666667,83 C110.666667,98.3088889 98.3088889,110.666667 83,110.666667 Z M166,193.666667 C150.691111,193.666667 138.333333,181.308889 138.333333,166 C138.333333,150.691111 150.691111,138.333333 166,138.333333 C181.308889,138.333333 193.666667,150.691111 193.666667,166 C193.666667,181.308889 181.308889,193.666667 166,193.666667 Z M249,276.666667 C233.691111,276.666667 221.333333,264.308889 221.333333,249 C221.333333,233.691111 233.691111,221.333333 249,221.333333 C264.308889,221.333333 276.666667,233.691111 276.666667,249 C276.666667,264.308889 264.308889,276.666667 249,276.666667 Z M249,110.666667 C233.691111,110.666667 221.333333,98.3088889 221.333333,83 C221.333333,67.6911111 233.691111,55.3333333 249,55.3333333 C264.308889,55.3333333 276.666667,67.6911111 276.666667,83 C276.666667,98.3088889 264.308889,110.666667 249,110.666667 Z" id="Shape"></path>
        </g>
    </g>
</svg>